<svg width="38" height="38" viewBox="0 0 38 38" fill="none" xmlns="http://www.w3.org/2000/svg">
<g clip-path="url(#clip0_3271_3381)">
<path d="M7.89243 4.37738C7.89243 4.37738 24.5291 4.30328 23.318 19.6216C23.318 19.6216 23.2709 20.1313 23.2582 20.2397C23.2836 20.0391 26.7666 0.818886 26.8897 0.135742H0.129883V37.7809H1.90397L7.89243 4.37738Z" fill="#F7B50C"/>
<path d="M2.01848 37.9163H0V0H27.0531L27.0241 0.15904C26.8775 0.968692 23.4307 19.9865 23.4035 20.2558L23.1338 20.2232C23.1464 20.1148 23.1935 19.6088 23.1935 19.6088C23.5302 15.3364 22.4947 11.8701 20.116 9.30739C15.9704 4.84888 8.98993 4.53441 8.01961 4.51273L2.01848 37.9163ZM0.266114 37.6452H1.79219L7.78427 4.24164H7.90013C8.05763 4.24164 15.8111 4.28863 20.3079 9.12124C22.435 11.4074 23.5139 14.3948 23.523 18.0148C24.3774 13.2689 26.3543 2.35486 26.7326 0.267474H0.266114V37.6452Z" fill="#F7B50C"/>
<path d="M35.9545 0.135742C35.8024 0.986961 29.9316 33.6188 29.9316 33.6188C28.2807 33.7146 13.639 34.0851 14.3034 19.1897C14.3034 19.1626 11.6766 33.9315 10.9941 37.7809H37.8354V0.135742H35.9545Z" fill="#F7B50C"/>
<path d="M37.973 37.9163H10.833L10.8602 37.7573C11.2023 35.8343 12.026 31.1861 12.7682 27.0185C13.1303 24.9348 13.4923 22.9721 13.744 21.5299C13.8725 20.807 13.9775 20.2178 14.0517 19.8058C14.106 19.5058 14.1386 19.325 14.1658 19.2166C14.1649 19.2058 14.1649 19.1949 14.1658 19.1841C14.202 19.0521 14.2291 19.0521 14.2943 19.0539H14.4355V19.1949C14.24 23.6353 15.3986 27.1234 17.8751 29.5668C22.0387 33.6566 28.6608 33.5427 29.823 33.4885C29.8393 33.3747 29.8701 33.203 29.9171 32.9463L35.8441 0H37.9748L37.973 37.9163ZM11.1571 37.6452H37.7014V0.271089H36.0722L34.5081 8.96581C32.7448 18.763 30.0819 33.5698 30.0692 33.6403L30.0511 33.747H29.9425C29.1514 33.7939 22.084 34.0723 17.6958 29.7547C15.4619 27.5571 14.2762 24.539 14.1585 20.7672C13.5973 23.8956 12.3102 31.1806 11.1571 37.6452Z" fill="#F7B50C"/>
</g>
<defs>
<clipPath id="clip0_3271_3381">
<rect width="38" height="38" fill="white"/>
</clipPath>
</defs>
</svg>
